<mxfile host="app.diagrams.net" modified="2020-04-03T16:54:39.840Z" agent="5.0 (Macintosh; Intel Mac OS X 10_14_6) AppleWebKit/537.36 (KHTML, like Gecko) Chrome/80.0.3987.149 Safari/537.36" etag="RaS6sZ5ZH7RDRPgze7H_" version="12.9.7" type="github">
  <diagram id="R_FBD3S4-JUN1P2f1tha" name="Page-1">
    <mxGraphModel dx="891" dy="623" grid="1" gridSize="10" guides="1" tooltips="1" connect="1" arrows="1" fold="1" page="1" pageScale="1" pageWidth="827" pageHeight="1169" math="0" shadow="0">
      <root>
        <mxCell id="0" />
        <mxCell id="1" parent="0" />
        <mxCell id="aG1y8dEiuVD8stSf4e4B-3" style="edgeStyle=orthogonalEdgeStyle;rounded=0;orthogonalLoop=1;jettySize=auto;html=1;exitX=0.5;exitY=1;exitDx=0;exitDy=0;entryX=0.5;entryY=0;entryDx=0;entryDy=0;strokeWidth=2;fillColor=#f0a30a;strokeColor=#BD7000;dashed=1;" parent="1" source="aG1y8dEiuVD8stSf4e4B-1" target="aG1y8dEiuVD8stSf4e4B-2" edge="1">
          <mxGeometry relative="1" as="geometry" />
        </mxCell>
        <mxCell id="aG1y8dEiuVD8stSf4e4B-1" value="&lt;font style=&quot;font-size: 16px&quot;&gt;大厅&lt;font style=&quot;font-size: 16px&quot;&gt;服&lt;/font&gt;&lt;/font&gt;" style="rounded=0;whiteSpace=wrap;html=1;fillColor=#f0a30a;strokeColor=#BD7000;fontColor=#000000;" parent="1" vertex="1">
          <mxGeometry x="200" y="190" width="100" height="40" as="geometry" />
        </mxCell>
        <mxCell id="aG1y8dEiuVD8stSf4e4B-8" style="edgeStyle=none;rounded=0;orthogonalLoop=1;jettySize=auto;html=1;exitX=1;exitY=0.5;exitDx=0;exitDy=0;strokeWidth=2;fillColor=#f0a30a;strokeColor=#BD7000;" parent="1" source="aG1y8dEiuVD8stSf4e4B-2" edge="1">
          <mxGeometry relative="1" as="geometry">
            <mxPoint x="410" y="300" as="targetPoint" />
          </mxGeometry>
        </mxCell>
        <mxCell id="aG1y8dEiuVD8stSf4e4B-2" value="&lt;span style=&quot;font-size: 16px&quot;&gt;战斗服&lt;/span&gt;" style="rounded=0;whiteSpace=wrap;html=1;fillColor=#f0a30a;strokeColor=#BD7000;fontColor=#000000;" parent="1" vertex="1">
          <mxGeometry x="200" y="336" width="100" height="40" as="geometry" />
        </mxCell>
        <mxCell id="aG1y8dEiuVD8stSf4e4B-9" style="edgeStyle=none;rounded=0;orthogonalLoop=1;jettySize=auto;html=1;entryX=1;entryY=0.5;entryDx=0;entryDy=0;strokeWidth=2;fillColor=#f0a30a;strokeColor=#BD7000;" parent="1" target="aG1y8dEiuVD8stSf4e4B-1" edge="1">
          <mxGeometry relative="1" as="geometry">
            <mxPoint x="410" y="260" as="sourcePoint" />
          </mxGeometry>
        </mxCell>
        <mxCell id="aG1y8dEiuVD8stSf4e4B-4" value="&lt;span style=&quot;font-size: 16px&quot;&gt;客户端&lt;/span&gt;" style="rounded=0;whiteSpace=wrap;html=1;fillColor=#f0a30a;strokeColor=#BD7000;fontColor=#000000;" parent="1" vertex="1">
          <mxGeometry x="418" y="260" width="100" height="40" as="geometry" />
        </mxCell>
        <mxCell id="aG1y8dEiuVD8stSf4e4B-6" value="匹配" style="text;html=1;align=center;verticalAlign=middle;resizable=0;points=[];autosize=1;" parent="1" vertex="1">
          <mxGeometry x="360" y="220" width="40" height="20" as="geometry" />
        </mxCell>
        <mxCell id="aG1y8dEiuVD8stSf4e4B-7" value="开始战斗" style="text;html=1;align=center;verticalAlign=middle;resizable=0;points=[];autosize=1;" parent="1" vertex="1">
          <mxGeometry x="190" y="270" width="60" height="20" as="geometry" />
        </mxCell>
        <mxCell id="aG1y8dEiuVD8stSf4e4B-10" value="&lt;font style=&quot;font-size: 16px&quot;&gt;&lt;font color=&quot;#ff0000&quot;&gt;&lt;b&gt;涂装数据&lt;/b&gt;&lt;/font&gt; &amp;amp; 非涂装数据&lt;/font&gt;" style="text;html=1;align=center;verticalAlign=middle;resizable=0;points=[];autosize=1;" parent="1" vertex="1">
          <mxGeometry x="305" y="336" width="180" height="20" as="geometry" />
        </mxCell>
      </root>
    </mxGraphModel>
  </diagram>
</mxfile>
